# xmcd
# 
# Track frame offsets:
#     150
#     18045
#     37887
#     58472
#     78795
#     100446
#     117111
#     133174
#     151999
#     169550
#     190848
#     213236
#     232103
#     251413
#     270537
# 
# Disc length: 3796
# 
# Revision: 0
# Processed by: cddbd v1.5.2PL0 Copyright (c) Steve Scherf et al.
# Submitted via: fre:ac v1.0.31
# 
DISCID=c10ed20f
DTITLE=SOUTHERN ALL STARS - 海のYeah!! DISC-1 SEASIDE
DYEAR=1998
DGENRE=J-Pop
TTITLE0=勝手にシンドバッド
TTITLE1=いとしのエリー
TTITLE2=C調言葉に御用心
TTITLE3=栞のテーマ
TTITLE4=いなせなロコモーション
TTITLE5=夏をあきらめて
TTITLE6=チャコの海岸物語
TTITLE7=匂艶 THE NIGHT CLUB
TTITLE8=鎌倉物語
TTITLE9=BYE BYE MY LOVE (U are the one)
TTITLE10=ミス・ブランニュー・デイ (MISS BRAND-NEW DAY)
TTITLE11=海
TTITLE12=みんなのうた
TTITLE13=希望の轍
TTITLE14=忘れられた BIG WAVE
EXTD=YEAR: 1998
EXTT0=
EXTT1=
EXTT2=
EXTT3=
EXTT4=
EXTT5=
EXTT6=
EXTT7=
EXTT8=
EXTT9=
EXTT10=
EXTT11=
EXTT12=
EXTT13=
EXTT14=
PLAYORDER=
